<?xml version="1.0" encoding="UTF-8" standalone="no"?>
<svg width="396px" height="97px" viewBox="0 0 396 97" version="1.1" xmlns="http://www.w3.org/2000/svg" xmlns:xlink="http://www.w3.org/1999/xlink">
    <!-- Generator: Sketch 40 (33762) - http://www.bohemiancoding.com/sketch -->
    <title>praisee-logo</title>
    <desc>Created with Sketch.</desc>
    <defs></defs>
    <g id="Page-1" stroke="none" stroke-width="1" fill="#000000" fill-rule="evenodd">
                <path d="M391.036945,61.2329477 C387.477734,68.1843479 382.846351,73.8110039 377.134779,78.1129155 C371.427215,82.4168314 365.469144,84.5672862 359.264574,84.5672862 C355.041017,84.5672862 351.506856,83.1002471 348.649067,80.1611586 C345.795285,77.2260784 344.370398,72.7568201 344.370398,66.7573919 C344.370398,60.7589658 345.838372,55.5852481 348.777326,51.2422514 C351.711271,46.8982525 355.126189,44.72475 359.013064,44.72475 C360.833753,44.72475 362.509147,45.2438253 364.040249,46.2769655 C365.571351,47.3131119 366.336902,49.256137 366.336902,52.1100491 C366.336902,54.9659653 365.073342,57.9240932 362.551232,60.9844329 C360.025115,64.0467767 356.20237,66.1170654 351.072977,67.1912907 L352.808494,74.5154632 C361.662432,72.9432062 368.633555,70.1704623 373.723868,66.1982336 C378.810173,62.2260049 381.353326,57.0562955 381.353326,50.683093 C381.272161,45.967324 379.244052,42.2245707 375.272005,39.4508247 C371.303966,36.6780808 366.12848,35.2922099 359.757572,35.2922099 C350.82247,35.2922099 343.145917,38.4798132 336.736932,44.8500095 C330.322938,51.2212078 327.117443,58.6686356 327.117443,67.1912907 C327.117443,68.2935742 327.164539,69.3667974 327.249711,70.4169729 C324.882916,73.3310095 322.236555,75.900332 319.299604,78.1129155 C313.590037,82.4168314 307.632967,84.5672862 301.427395,84.5672862 C297.206844,84.5672862 293.669678,83.1002471 290.814894,80.1611586 C287.961112,77.2260784 286.533219,72.7568201 286.533219,66.7573919 C286.533219,60.7589658 288.001193,55.5852481 290.940148,51.2422514 C293.875094,46.8982525 297.288009,44.72475 301.177889,44.72475 C302.997576,44.72475 304.672971,45.2438253 306.205075,46.2769655 C307.735175,47.3131119 308.501728,49.256137 308.501728,52.1100491 C308.501728,54.9659653 307.238168,57.9240932 304.716058,60.9844329 C302.190942,64.0467767 298.365191,66.1170654 293.234797,67.1912907 L294.972317,74.5154632 C303.825253,72.9432062 310.797379,70.1704623 315.88669,66.1982336 C320.974999,62.2260049 323.519153,57.0562955 323.519153,50.683093 C323.434983,45.967324 321.408878,42.2245707 317.437832,39.4508247 C313.465785,36.6780808 308.294307,35.2922099 301.9234,35.2922099 C292.987295,35.2922099 285.310742,38.4798132 278.899754,44.8500095 C272.486761,51.2212078 269.281267,58.6686356 269.281267,67.1912907 C269.281267,75.7139459 271.84446,82.7064313 276.976858,88.1667426 C281.773576,93.2152008 288.311823,95.7374258 296.586587,95.7374258 C301.632811,95.7374258 306.534742,94.829545 311.293384,93.006769 C316.051023,91.1890034 320.168364,88.8311189 323.643405,85.9321135 C325.858893,84.0341818 327.834897,82.121219 329.621517,80.1972333 C330.881068,83.1353197 332.591534,85.8038478 334.813035,88.1667426 C339.611757,93.2152008 346.149001,95.7374258 354.424768,95.7374258 C359.467986,95.7374258 364.371921,94.829545 369.130562,93.006769 C373.885195,91.1890034 378.002537,88.8311189 381.480584,85.9321135 C388.429662,79.9757746 393.269468,73.8941762 396,67.6873183 C394.510983,65.1240082 392.857634,62.9705472 391.036945,61.2329477 Z M259.953368,62.0996431 C258.924283,61.0765236 258.08358,60.2518152 257.431258,59.628524 C262.846229,53.2954046 265.513633,48.373208 265.430465,44.8609321 C265.347296,41.3516624 263.822206,38.6029683 260.855195,36.6208623 C257.88618,34.6377542 253.509312,33.7148423 247.71858,33.8521267 C241.926846,33.9894111 237.009884,35.3612529 232.966693,37.9656481 C228.922499,40.5720474 226.95351,44.1534665 227.060727,48.7119096 C227.168947,53.274361 231.009728,59.3188826 238.578062,66.8494827 C246.146395,74.3820869 249.980162,80.2452328 250.079363,84.4389202 C250.148503,87.3589693 248.499162,88.9923529 245.131339,89.3460857 C242.040076,82.1201167 238.176247,76.8742496 233.53785,73.6064802 C231.364447,74.2979125 228.713075,76.1166802 225.591751,79.0647874 C222.466419,82.0128946 220.920287,84.1262726 220.950348,85.4019151 C221.000449,87.5012641 222.948396,89.8711735 226.798195,92.5186579 C230.646993,95.1641382 235.80845,96.4107205 242.284571,96.2574029 C248.758688,96.1040853 254.484288,94.1440249 259.459367,90.3762197 C264.434447,86.6094165 266.853348,81.8515604 266.717071,76.1056574 C266.65695,73.5543722 265.772157,70.8377446 264.06069,67.9567765 C262.350224,65.0778126 260.981451,63.1257688 259.953368,62.0996431 Z M253.076435,54.9398111 L250.983194,53.2102281 C246.882887,49.6588713 244.810689,46.8791129 244.762591,44.8709528 C244.737541,43.776686 245.397879,42.7826268 246.746611,41.8817606 C248.092338,40.9839006 249.814827,40.5089166 251.913078,40.4598149 C256.290948,40.355599 258.517459,41.8997979 258.592611,45.0914095 C258.667764,48.2850253 256.829038,51.5668237 253.076435,54.9398111 Z M210.239547,3.63142271 C207.677356,3.63142271 205.502951,4.54331174 203.717333,6.3670898 C201.930714,8.19287202 201.038907,10.3864161 201.038907,12.9487241 C201.038907,15.511032 201.930714,17.6855366 203.717333,19.4722379 C205.502951,21.2579371 207.677356,22.1497846 210.239547,22.1497846 C212.802741,22.1497846 214.995182,21.2579371 216.820881,19.4722379 C218.644576,17.6855366 219.557426,15.511032 219.557426,12.9487241 C219.557426,10.3864161 218.644576,8.19287202 216.820881,6.3670898 C214.995182,4.54331174 212.802741,3.63142271 210.239547,3.63142271 Z M215.106608,84.015443 C212.438202,84.1467149 210.934155,82.9472301 210.606491,80.8098023 C210.441156,79.9901042 210.359991,79.023101 210.359991,77.9117989 C210.359991,76.803503 210.564406,75.4286549 210.97624,73.7832464 C210.97624,73.5357336 212.578486,61.044858 215.783981,36.3066113 C214.057483,35.7324218 212.064445,35.4448261 209.804867,35.4448261 C207.543285,35.4448261 205.263666,35.8356356 202.964007,36.6152507 C200.661342,37.3968698 199.100179,38.5262093 198.279516,40.0052733 L194.003854,76.7093079 C193.321471,77.925828 192.612034,78.9970471 191.870532,79.8848863 C189.568868,82.6385907 187.390455,84.015443 185.337295,84.015443 C182.706966,84.015443 181.393305,82.3730406 181.393305,79.0842277 C181.393305,76.6191211 181.763054,72.5917782 182.50155,67.0032011 C182.829214,64.5360903 183.406383,60.3674548 184.227046,54.4892778 C185.047709,48.6161112 185.830294,42.6367245 186.569792,36.554124 C185.17196,35.7324218 182.89134,35.3205687 179.728933,35.3205687 C176.564522,35.3205687 173.874071,36.0200176 171.653572,37.4159093 C168.203582,36.0200176 164.42192,35.3205687 160.313597,35.3205687 L159.574099,35.3205687 C149.875449,35.3205687 141.864218,38.5262093 135.536398,44.9364886 C129.207576,51.3467679 126.044167,59.9365621 126.044167,70.7018631 C126.044167,78.098185 128.325789,84.0575302 132.886028,88.5758902 C137.44727,93.0972565 143.074671,95.3549334 149.774244,95.3549334 C156.470811,95.3549334 161.956926,92.6854033 166.230585,87.344339 C168.696581,92.6032331 173.707734,95.2326802 181.270055,95.2326802 C185.214046,95.2326802 189.199119,93.6504024 193.226278,90.4868489 C194.007862,89.8725764 194.749364,89.1440672 195.468822,88.3544314 C196.069038,89.4627274 196.813546,90.4868489 197.725394,91.4117649 C200.394802,94.1243842 204.484087,95.6024461 209.990242,95.4801929 C218.444371,95.2918026 222.037651,83.6757393 215.106608,84.015443 Z M165.367837,73.0437144 C162.736506,80.3598702 158.834601,84.015443 153.657111,84.015443 C150.615949,84.015443 148.128911,82.8249769 146.199001,80.4400363 C144.267087,78.058102 143.302132,74.8514592 143.302132,70.8241164 C143.302132,70.1667546 143.342213,69.4683077 143.425381,68.7287757 C143.999545,60.8384304 145.829252,54.9031351 148.911496,50.9158753 C151.992739,46.9306196 156.163188,44.9364886 161.422844,44.9364886 C163.642341,44.9364886 165.940998,45.4285079 168.326832,46.4155526 L165.367837,73.0437144 Z M129.681235,45.6633944 C129.813503,42.8726132 128.892638,40.5868781 126.920643,38.8061893 C124.948647,37.0275047 122.115908,36.0474745 118.422425,35.8721112 C113.33111,35.6296088 109.052441,37.3611959 105.588423,41.0638662 L105.599446,40.8173556 C105.774801,37.123704 103.357904,35.156629 98.3517617,34.9191371 C95.3136063,34.7748381 92.2964936,35.0854817 89.2984195,35.8460572 L83.2050743,73.2004391 C83.0878368,73.9349607 82.9926439,75.0823375 82.9184937,76.6415676 C82.6770044,81.7321129 83.7090955,85.9969478 86.0137648,89.4390784 C88.318434,92.8782027 92.1341647,94.8122091 97.4739833,94.9795558 C108.765861,95.3332886 113.780019,84.8044775 106.362992,83.0418261 C105.506257,83.7382688 104.454125,84.0809787 103.177539,84.0208542 C100.385883,83.8885802 99.0732234,82.0978706 99.2365543,78.6507297 C99.2405624,78.5685594 100.262633,72.6502994 102.301764,60.8999579 C102.246653,61.2406637 103.447085,54.917565 104.803834,52.3793068 C106.976235,48.207665 109.724804,46.1954967 113.04954,46.3538247 C116.373273,46.5111506 117.950469,48.3980595 117.779122,52.0085388 C117.740043,52.8312431 117.616793,53.6880179 117.410375,54.5828717 L117.902371,54.6059194 C121.267189,54.7662515 124.038804,54.0136926 126.217217,52.3472404 C128.393627,50.6827924 129.548968,48.4541757 129.681235,45.6633944 Z M76.0721229,6.29504055 C69.5408905,2.0672825 60.7500803,0 48.0212916,0 C35.293505,0 24.1569422,2.59738063 14.6126053,7.78813358 C5.06526227,12.9808907 0,20.7439724 0,29.285667 C0,34.0595564 1.44392541,37.911536 4.33277825,40.8416058 C7.2216311,43.7746819 10.2557783,45.4481485 13.44023,45.8660142 C15.1967888,42.6844233 16.2439103,39.5860048 16.5795904,36.5707585 C14.6516845,36.0687185 12.7889105,35.0856821 10.9902664,33.6196451 C9.18861623,32.1546102 8.28979521,30.2486619 8.28979521,27.9038044 C8.28979521,23.2992658 11.7227504,18.903159 18.5896628,14.7144819 C25.4535692,10.5288111 34.0790445,8.43347043 44.4640847,8.43347043 C52.4181998,8.43347043 58.1738608,9.92155309 61.7340739,12.8937101 C65.2912808,15.8668692 67.0728904,20.6618021 67.0728904,27.2755028 C67.0728904,30.8769635 66.6750844,34.2900338 65.8784704,37.5127098 C65.0818565,40.738392 63.5707951,43.4640383 60.9765391,46.2277636 C58.379277,48.9904867 54.6026255,50.262121 50.5834826,50.262121 C48.3960509,50.262121 46.4340759,49.919411 44.6835293,49.2620493 C46.43608,38.8725267 48.5834305,26.0950575 48.6064772,25.7683807 L48.6174995,25.5298867 C48.7858406,21.9705132 46.4571226,20.0755878 41.6333496,19.8471145 C38.7064196,19.7078259 35.7995302,20.0074466 32.9106774,20.7399641 L24.050727,74.329979 C23.9374976,75.0374445 23.8453108,76.1437363 23.7741667,77.645848 C23.5416957,82.5510093 24.5357096,86.6605224 26.7572104,89.9763914 C28.9767071,93.2902563 32.6621739,94.9787541 37.7985803,95.3144495 C47.3098502,95.9377407 53.590575,86.034225 46.3629318,83.8126228 C45.538261,84.4830116 44.5242065,84.8136966 43.2937135,84.7555762 C40.6052667,84.6283126 39.3397026,82.90374 39.4970214,79.5818585 C39.5010295,79.5026946 40.4860251,73.7998808 42.4500041,62.4784278 C42.4389818,62.5485731 42.7135381,60.9252102 43.1514252,58.3388524 C46.1685379,59.469194 49.7087103,60.0423814 53.786973,60.0423814 C60.8212244,60.0423814 66.0097364,58.359896 71.0349175,55.0941308 C80.3297489,49.1488147 85.5763786,38.4907358 85.5763786,26.8506227 C85.5763786,17.9742347 82.6033552,10.5238007 76.0721229,6.29504055 Z" id="praisee-logo"></path>
    </g>
</svg>